<svg width="41" height="86" viewBox="0 0 41 86" fill="none" xmlns="http://www.w3.org/2000/svg">
<path d="M31.672 86C30.8587 86 30.1673 85.756 29.598 85.268C29.11 84.6987 28.866 84.0073 28.866 83.194V14.874L8.614 30.49C7.96333 30.978 7.272 31.1813 6.54 31.1C5.808 31.0187 5.198 30.6527 4.71 30.002L1.538 25.976C1.05 25.244 0.846667 24.512 0.928 23.78C1.09067 23.048 1.49733 22.438 2.148 21.95L28.744 1.454C29.3133 1.04733 29.842 0.80333 30.33 0.721993C30.818 0.64066 31.3467 0.599994 31.916 0.599994H38.138C38.9513 0.599994 39.602 0.884662 40.09 1.454C40.578 1.942 40.822 2.59266 40.822 3.40599V83.194C40.822 84.0073 40.578 84.6987 40.09 85.268C39.602 85.756 38.9513 86 38.138 86H31.672Z" fill="#F97B3A"/>
</svg>
