<svg width="61" height="87" viewBox="0 0 61 87" fill="none" xmlns="http://www.w3.org/2000/svg">
<path d="M3.784 87C2.97067 87 2.27933 86.756 1.71 86.268C1.222 85.6987 0.978 85.0073 0.978 84.194V80.29C0.978 79.558 1.18133 78.7447 1.588 77.85C1.99467 76.9553 2.808 75.9793 4.028 74.922L29.892 49.058C34.04 45.5607 37.2933 42.592 39.652 40.152C42.092 37.6307 43.8 35.2313 44.776 32.954C45.8333 30.6767 46.362 28.318 46.362 25.878C46.362 21.242 45.0607 17.582 42.458 14.898C39.8553 12.1327 35.992 10.75 30.868 10.75C27.6147 10.75 24.8087 11.4413 22.45 12.824C20.0913 14.1253 18.2207 15.9553 16.838 18.314C15.5367 20.5913 14.6827 23.194 14.276 26.122C14.1133 27.1793 13.666 27.9113 12.934 28.318C12.2833 28.7247 11.6733 28.928 11.104 28.928H4.76C4.028 28.928 3.418 28.7247 2.93 28.318C2.442 27.83 2.198 27.2607 2.198 26.61C2.27933 23.5193 2.93 20.4287 4.15 17.338C5.37 14.166 7.15933 11.3193 9.518 8.798C11.958 6.27666 14.9267 4.24333 18.424 2.69799C22.0027 1.07133 26.1507 0.257997 30.868 0.257997C37.2933 0.257997 42.5393 1.43733 46.606 3.79599C50.754 6.07333 53.804 9.12333 55.756 12.946C57.708 16.7687 58.684 20.9573 58.684 25.512C58.684 29.0907 58.074 32.3847 56.854 35.394C55.634 38.322 53.8447 41.2093 51.486 44.056C49.2087 46.8213 46.362 49.668 42.946 52.596L19.522 76.386H57.586C58.4807 76.386 59.172 76.63 59.66 77.118C60.2293 77.606 60.514 78.2973 60.514 79.192V84.194C60.514 85.0073 60.2293 85.6987 59.66 86.268C59.172 86.756 58.4807 87 57.586 87H3.784Z" fill="#F97B3A"/>
</svg>
