<svg width="63" height="88" viewBox="0 0 63 88" fill="none" xmlns="http://www.w3.org/2000/svg">
<path d="M31.356 87.22C26.232 87.22 21.7587 86.61 17.936 85.39C14.1133 84.0887 10.9007 82.3807 8.298 80.266C5.69533 78.1513 3.70267 75.8333 2.32 73.312C1.01867 70.7907 0.327334 68.188 0.246 65.504C0.246 64.772 0.49 64.2027 0.978 63.796C1.466 63.3893 2.076 63.186 2.808 63.186H8.786C9.518 63.186 10.1687 63.3487 10.738 63.674C11.3073 63.9993 11.7953 64.6907 12.202 65.748C13.0153 68.676 14.398 70.9533 16.35 72.58C18.3833 74.2067 20.7013 75.3453 23.304 75.996C25.988 76.5653 28.672 76.85 31.356 76.85C36.968 76.85 41.5227 75.508 45.02 72.824C48.5173 70.14 50.266 66.1953 50.266 60.99C50.266 55.7033 48.68 51.9213 45.508 49.644C42.336 47.3667 37.944 46.228 32.332 46.228H20.742C19.9287 46.228 19.2373 45.984 18.668 45.496C18.18 45.008 17.936 44.3167 17.936 43.422V40.128C17.936 39.396 18.058 38.786 18.302 38.298C18.6273 37.7287 18.9527 37.2407 19.278 36.834L42.946 10.97H6.956C6.14267 10.97 5.45133 10.726 4.882 10.238C4.394 9.75 4.15 9.05866 4.15 8.164V3.52799C4.15 2.63333 4.394 1.942 4.882 1.454C5.45133 0.884662 6.14267 0.599994 6.956 0.599994H55.634C56.5287 0.599994 57.22 0.884662 57.708 1.454C58.2773 1.942 58.562 2.63333 58.562 3.52799V7.91999C58.562 8.48933 58.3993 9.018 58.074 9.506C57.83 9.91266 57.5453 10.3193 57.22 10.726L33.674 36.956L35.626 37.078C40.994 37.2407 45.6707 38.2167 49.656 40.006C53.7227 41.7953 56.854 44.4793 59.05 48.058C61.3273 51.5553 62.466 55.988 62.466 61.356C62.466 66.8053 61.124 71.482 58.44 75.386C55.756 79.2087 52.0553 82.1367 47.338 84.17C42.6207 86.2033 37.2933 87.22 31.356 87.22Z" fill="#F97B3A"/>
</svg>
