<svg width="69" height="86" viewBox="0 0 69 86" fill="none" xmlns="http://www.w3.org/2000/svg">
<path d="M45.922 86C45.1087 86 44.4173 85.756 43.848 85.268C43.36 84.6987 43.116 84.0073 43.116 83.194V65.626H3.588C2.77467 65.626 2.08333 65.382 1.514 64.894C1.026 64.3247 0.782 63.6333 0.782 62.82V57.94C0.782 57.6147 0.863333 57.1267 1.026 56.476C1.27 55.744 1.636 55.012 2.124 54.28L38.724 2.674C39.7 1.29133 41.2047 0.599994 43.238 0.599994H52.022C52.8353 0.599994 53.486 0.884662 53.974 1.454C54.5433 1.942 54.828 2.59266 54.828 3.40599V55.012H65.808C66.7027 55.012 67.394 55.2967 67.882 55.866C68.4513 56.354 68.736 57.0047 68.736 57.818V62.82C68.736 63.6333 68.4513 64.3247 67.882 64.894C67.394 65.382 66.7433 65.626 65.93 65.626H54.828V83.194C54.828 84.0073 54.5433 84.6987 53.974 85.268C53.486 85.756 52.8353 86 52.022 86H45.922ZM13.836 55.256H43.238V13.41L13.836 55.256Z" fill="#F97B3A"/>
</svg>
