<svg width="72" height="72" viewBox="0 0 72 72" fill="none" xmlns="http://www.w3.org/2000/svg">
<path d="M35.9998 0.166687C16.2198 0.166687 0.166504 16.22 0.166504 36C0.166504 55.78 16.2198 71.8334 35.9998 71.8334C55.7798 71.8334 71.8332 55.78 71.8332 36C71.8332 16.22 55.7798 0.166687 35.9998 0.166687ZM35.9998 10.9167C41.9482 10.9167 46.7498 15.7184 46.7498 21.6667C46.7498 27.615 41.9482 32.4167 35.9998 32.4167C30.0515 32.4167 25.2498 27.615 25.2498 21.6667C25.2498 15.7184 30.0515 10.9167 35.9998 10.9167ZM35.9998 61.8C31.7423 61.8 27.551 60.7464 23.7996 58.7332C20.0482 56.7199 16.8533 53.8096 14.4998 50.2617C14.6073 43.1309 28.8332 39.225 35.9998 39.225C43.1307 39.225 57.3923 43.1309 57.4998 50.2617C55.1464 53.8096 51.9515 56.7199 48.2001 58.7332C44.4487 60.7464 40.2573 61.8 35.9998 61.8Z" fill="#5E5E5E"/>
</svg>
