<svg width="42" height="42" viewBox="0 0 42 42" fill="none" xmlns="http://www.w3.org/2000/svg">
<rect x="1.75" y="1.75" width="38.5" height="38.5" rx="9.25" stroke="white" stroke-width="3.5"/>
<path d="M16.625 7.40625C15.2875 7.40625 14.1225 8.18525 13.3825 9.24869C12.6425 10.3121 12.25 11.6856 12.25 13.1719C12.25 14.6581 12.6425 16.0329 13.3825 17.0963C14.1225 18.1598 15.2875 18.9375 16.625 18.9375C17.9625 18.9375 19.1275 18.1585 19.8675 17.0951C20.6075 16.0316 21 14.6581 21 13.1719C21 11.6856 20.6075 10.3108 19.8675 9.24741C19.1275 8.18397 17.9625 7.40625 16.625 7.40625ZM21 13.1719C21 14.6581 21.3925 16.0329 22.1325 17.0963C22.8725 18.1598 24.0387 18.9375 25.375 18.9375C26.7125 18.9375 27.8775 18.1585 28.6175 17.0951C29.3575 16.0316 29.75 14.6581 29.75 13.1719C29.75 11.6856 29.3575 10.3108 28.6175 9.24741C27.8775 8.18397 26.7125 7.40625 25.375 7.40625C24.0375 7.40625 22.8725 8.18525 22.1325 9.24869C21.3925 10.3121 21 11.6856 21 13.1719ZM16.625 9.96875C17.015 9.96875 17.445 10.1686 17.8375 10.7298C18.225 11.2897 18.5 12.1815 18.5 13.1719C18.5 14.1623 18.225 15.0553 17.8375 15.6139C17.445 16.1751 17.015 16.375 16.625 16.375C16.235 16.375 15.805 16.1751 15.4125 15.6139C15.025 15.054 14.75 14.1623 14.75 13.1719C14.75 12.1815 15.025 11.2884 15.4125 10.7298C15.805 10.1686 16.235 9.96875 16.625 9.96875ZM25.375 9.96875C25.765 9.96875 26.195 10.1686 26.5875 10.7298C26.975 11.2897 27.25 12.1815 27.25 13.1719C27.25 14.1623 26.975 15.0553 26.5875 15.6139C26.195 16.1751 25.765 16.375 25.375 16.375C24.985 16.375 24.555 16.1751 24.1625 15.6139C23.775 15.054 23.5 14.1623 23.5 13.1719C23.5 12.1815 23.775 11.2884 24.1625 10.7298C24.555 10.1686 24.985 9.96875 25.375 9.96875ZM10.375 16.375C9.0375 16.375 7.8725 17.154 7.1325 18.2174C6.3925 19.2809 6 20.6544 6 22.1406C6 23.6269 6.3925 25.0017 7.1325 26.0651C7.8725 27.1285 9.0375 27.9062 10.375 27.9062C11.7125 27.9062 12.8775 27.1273 13.6175 26.0638C14.3575 25.0004 14.75 23.6269 14.75 22.1406C14.75 20.6544 14.3575 19.2796 13.6175 18.2162C12.8775 17.1527 11.7125 16.375 10.375 16.375ZM31.625 16.375C30.2875 16.375 29.1225 17.154 28.3825 18.2174C27.6425 19.2809 27.25 20.6544 27.25 22.1406C27.25 23.6269 27.6425 25.0017 28.3825 26.0651C29.1225 27.1285 30.2875 27.9062 31.625 27.9062C32.9625 27.9062 34.1275 27.1273 34.8675 26.0638C35.6075 25.0004 36 23.6269 36 22.1406C36 20.6544 35.6075 19.2796 34.8675 18.2162C34.1275 17.1527 32.9625 16.375 31.625 16.375ZM10.375 18.9375C10.765 18.9375 11.195 19.1374 11.5875 19.6986C11.975 20.2585 12.25 21.1502 12.25 22.1406C12.25 23.131 11.975 24.0241 11.5875 24.5827C11.195 25.1439 10.765 25.3438 10.375 25.3438C9.985 25.3438 9.555 25.1439 9.1625 24.5827C8.775 24.0241 8.5 23.131 8.5 22.1406C8.5 21.1502 8.775 20.2572 9.1625 19.6986C9.555 19.1374 9.985 18.9375 10.375 18.9375ZM31.625 18.9375C32.015 18.9375 32.445 19.1374 32.8375 19.6986C33.225 20.2585 33.5 21.1502 33.5 22.1406C33.5 23.131 33.225 24.0241 32.8375 24.5827C32.445 25.1439 32.015 25.3438 31.625 25.3438C31.235 25.3438 30.805 25.1439 30.4125 24.5827C30.025 24.0228 29.75 23.131 29.75 22.1406C29.75 21.1502 30.025 20.2572 30.4125 19.6986C30.805 19.1374 31.235 18.9375 31.625 18.9375ZM21 21.5C19.3338 21.5 18.1712 22.6083 17.6 23.582C17.0325 24.5558 16.6825 25.3655 16.35 25.7038C16.1587 25.9049 14.9525 26.37 13.695 27.0273C13.0663 27.3566 12.4325 27.7961 11.8987 28.4687C11.3612 29.1414 10.9988 30.0703 10.9988 31.1119C10.9988 33.5719 12.9737 35.5963 15.3737 35.5963C16.4562 35.5963 17.5863 35.2376 18.6925 34.9173C19.8038 34.5893 21 34.3125 21 34.3125C21 34.3125 22.1962 34.5892 23.305 34.9147C24.4125 35.235 25.5425 35.5938 26.625 35.5938C29.025 35.5938 31 33.5694 31 31.1094C31 30.0921 30.6338 29.1619 30.1 28.5084C29.5688 27.8512 28.9287 27.445 28.305 27.1055C27.055 26.4264 25.8262 25.8883 25.6487 25.7038C25.3487 25.4001 25.0113 24.5635 24.4363 23.5846C23.8625 22.6019 22.675 21.5 21 21.5ZM21 24.0625C21.825 24.0625 21.9163 24.2675 22.2875 24.903C22.6625 25.5372 22.9425 26.6147 23.85 27.5462C24.8813 28.5968 26.1838 28.8275 27.1325 29.3451C27.6075 29.6039 27.97 29.8794 28.1875 30.1459C28.4037 30.4111 28.5 30.6532 28.5 31.1068C28.5 32.1831 27.675 33.0287 26.625 33.0287C26.2625 33.0287 25.095 32.7468 24.0075 32.4265C22.92 32.11 22.02 31.7474 21 31.7474C19.98 31.7474 19.08 32.11 17.9925 32.4265C16.905 32.7468 15.7375 33.0287 15.375 33.0287C14.325 33.0287 13.5 32.1831 13.5 31.1068C13.5 30.5905 13.605 30.3253 13.8125 30.0639C14.02 29.8038 14.4025 29.5462 14.8675 29.3041C15.7975 28.8172 17.0925 28.625 18.1487 27.5424C19.065 26.5981 19.34 25.486 19.7112 24.8582C20.0762 24.2303 20.1637 24.0574 20.9987 24.0574L21 24.0625Z" fill="white"/>
</svg>
