<svg width="68" height="68" viewBox="0 0 68 68" fill="none" xmlns="http://www.w3.org/2000/svg">
<rect width="68" height="68" rx="10" fill="#F97B3A"/>
<path d="M36.7575 5.02501C36.9824 5.11445 37.3336 5.13953 37.3336 5.13953M32.7636 5.02501C32.7636 4.73759 32.7121 4.46618 32.6389 4.2256C32.4549 3.62092 31.7382 3.4839 31.2201 3.84984C30.3004 4.49947 28.9268 5.57612 28.1937 6.66654C26.4719 9.22761 27.4801 12.4471 27.2337 14.3016C26.9649 16.3249 25.7505 18.0487 25.2368 20.5623C24.2752 25.2667 25.7744 29.1136 25.2368 32.8548C24.9937 34.5462 23.5897 35.0385 23.0862 36.6722C21.0509 43.2766 23.1123 53.8039 24.7375 54.5382C26.8497 55.4927 30.5363 54.4238 31.3427 54.8437C32.1492 55.2636 32.8965 56.2341 34.1077 56.9815C35.2214 57.6687 36.4118 58.9666 35.6822 59.9509C34.9526 60.935 27.2337 59.7866 24.4687 61.707C23.9237 62.0854 23.2995 62.5774 23.0094 63.2422C22.8927 63.5097 22.8543 63.7695 22.8547 63.9967C22.8556 64.4795 23.3244 64.7623 23.7963 64.6474C24.0742 64.5797 24.4098 64.4746 24.7759 64.3111C25.5182 63.9798 26.3865 63.1649 27.1569 63.2422C30.9587 63.624 35.0294 64.7692 37.9095 63.624C40.1804 62.721 41.7882 60.2263 41.3658 58.4703C40.9237 56.6326 36.4842 54.3323 37.9095 53.9275C38.716 53.6985 41.1354 54.3856 42.6331 53.6602C44.195 52.9038 44.0173 49.9861 43.9288 49.1274C43.9124 48.9684 43.9195 48.8118 43.9564 48.6561C44.2293 47.5029 45.3954 42.307 45.1292 38.8101C44.7677 34.0619 42.8251 30.3734 41.3658 27.2048C40.2749 24.8363 41.4127 23.083 40.7513 20.5623C40.2115 18.505 38.2475 17.0502 38.6776 15.5232C39.2152 13.6144 40.4427 12.2737 40.3289 9.75873C40.2525 8.06985 39.2705 5.89989 38.5614 4.53684C38.2035 3.84883 37.2758 3.72691 36.9477 4.42949C36.8598 4.61776 36.7907 4.81871 36.7575 5.02501H32.7636ZM32.7636 5.02501C34.2997 4.87231 35.183 4.79595 36.7575 5.02501H32.7636ZM32.7636 5.02501C32.5237 5.11445 32.1492 5.13953 32.1492 5.13953L32.7636 5.02501Z" stroke="white" stroke-width="2" stroke-linecap="round" stroke-linejoin="round"/>
</svg>
