<svg width="24" height="23" viewBox="0 0 24 23" fill="none" xmlns="http://www.w3.org/2000/svg">
<path d="M8.5 0C7.43 0 6.498 0.608 5.906 1.438C5.314 2.268 5 3.34 5 4.5C5 5.66 5.314 6.733 5.906 7.563C6.498 8.393 7.43 9 8.5 9C9.57 9 10.502 8.392 11.094 7.562C11.686 6.732 12 5.66 12 4.5C12 3.34 11.686 2.267 11.094 1.437C10.502 0.607 9.57 0 8.5 0ZM12 4.5C12 5.66 12.314 6.733 12.906 7.563C13.498 8.393 14.431 9 15.5 9C16.57 9 17.502 8.392 18.094 7.562C18.686 6.732 19 5.66 19 4.5C19 3.34 18.686 2.267 18.094 1.437C17.502 0.607 16.57 0 15.5 0C14.43 0 13.498 0.608 12.906 1.438C12.314 2.268 12 3.34 12 4.5ZM8.5 2C8.812 2 9.156 2.156 9.47 2.594C9.78 3.031 10 3.727 10 4.5C10 5.273 9.78 5.97 9.47 6.406C9.156 6.844 8.812 7 8.5 7C8.188 7 7.844 6.844 7.53 6.406C7.22 5.969 7 5.273 7 4.5C7 3.727 7.22 3.03 7.53 2.594C7.844 2.156 8.188 2 8.5 2ZM15.5 2C15.812 2 16.156 2.156 16.47 2.594C16.78 3.031 17 3.727 17 4.5C17 5.273 16.78 5.97 16.47 6.406C16.156 6.844 15.812 7 15.5 7C15.188 7 14.844 6.844 14.53 6.406C14.22 5.969 14 5.273 14 4.5C14 3.727 14.22 3.03 14.53 2.594C14.844 2.156 15.188 2 15.5 2ZM3.5 7C2.43 7 1.498 7.608 0.906 8.438C0.314 9.268 0 10.34 0 11.5C0 12.66 0.314 13.733 0.906 14.563C1.498 15.393 2.43 16 3.5 16C4.57 16 5.502 15.392 6.094 14.562C6.686 13.732 7 12.66 7 11.5C7 10.34 6.686 9.267 6.094 8.437C5.502 7.607 4.57 7 3.5 7ZM20.5 7C19.43 7 18.498 7.608 17.906 8.438C17.314 9.268 17 10.34 17 11.5C17 12.66 17.314 13.733 17.906 14.563C18.498 15.393 19.43 16 20.5 16C21.57 16 22.502 15.392 23.094 14.562C23.686 13.732 24 12.66 24 11.5C24 10.34 23.686 9.267 23.094 8.437C22.502 7.607 21.57 7 20.5 7ZM3.5 9C3.812 9 4.156 9.156 4.47 9.594C4.78 10.031 5 10.727 5 11.5C5 12.273 4.78 12.97 4.47 13.406C4.156 13.844 3.812 14 3.5 14C3.188 14 2.844 13.844 2.53 13.406C2.22 12.97 2 12.273 2 11.5C2 10.727 2.22 10.03 2.53 9.594C2.844 9.156 3.188 9 3.5 9ZM20.5 9C20.812 9 21.156 9.156 21.47 9.594C21.78 10.031 22 10.727 22 11.5C22 12.273 21.78 12.97 21.47 13.406C21.156 13.844 20.812 14 20.5 14C20.188 14 19.844 13.844 19.53 13.406C19.22 12.969 19 12.273 19 11.5C19 10.727 19.22 10.03 19.53 9.594C19.844 9.156 20.188 9 20.5 9ZM12 11C10.667 11 9.737 11.865 9.28 12.625C8.826 13.385 8.546 14.017 8.28 14.281C8.127 14.438 7.162 14.801 6.156 15.314C5.653 15.571 5.146 15.914 4.719 16.439C4.289 16.964 3.999 17.689 3.999 18.502C3.999 20.422 5.579 22.002 7.499 22.002C8.365 22.002 9.269 21.722 10.154 21.472C11.043 21.216 12 21 12 21C12 21 12.957 21.216 13.844 21.47C14.73 21.72 15.634 22 16.5 22C18.42 22 20 20.42 20 18.5C20 17.706 19.707 16.98 19.28 16.47C18.855 15.957 18.343 15.64 17.844 15.375C16.844 14.845 15.861 14.425 15.719 14.281C15.479 14.044 15.209 13.391 14.749 12.627C14.29 11.86 13.34 11 12 11ZM12 13C12.66 13 12.733 13.16 13.03 13.656C13.33 14.151 13.554 14.992 14.28 15.719C15.105 16.539 16.147 16.719 16.906 17.123C17.286 17.325 17.576 17.54 17.75 17.748C17.923 17.955 18 18.144 18 18.498C18 19.338 17.34 19.998 16.5 19.998C16.21 19.998 15.276 19.778 14.406 19.528C13.536 19.281 12.816 18.998 12 18.998C11.184 18.998 10.464 19.281 9.594 19.528C8.724 19.778 7.79 19.998 7.5 19.998C6.66 19.998 6 19.338 6 18.498C6 18.095 6.084 17.888 6.25 17.684C6.416 17.481 6.722 17.28 7.094 17.091C7.838 16.711 8.874 16.561 9.719 15.716C10.452 14.979 10.672 14.111 10.969 13.621C11.261 13.131 11.331 12.996 11.999 12.996L12 13Z" fill="#F97B3A"/>
</svg>
