<svg width="15" height="15" viewBox="0 0 15 15" fill="none" xmlns="http://www.w3.org/2000/svg">
<path d="M5.85938 2.34375C5.35781 2.34375 4.92094 2.62875 4.64344 3.01781C4.36594 3.40688 4.21875 3.90937 4.21875 4.45312C4.21875 4.99687 4.36594 5.49984 4.64344 5.88891C4.92094 6.27797 5.35781 6.5625 5.85938 6.5625C6.36094 6.5625 6.79781 6.2775 7.07531 5.88844C7.35281 5.49937 7.5 4.99687 7.5 4.45312C7.5 3.90937 7.35281 3.40641 7.07531 3.01734C6.79781 2.62828 6.36094 2.34375 5.85938 2.34375ZM7.5 4.45312C7.5 4.99687 7.64719 5.49984 7.92469 5.88891C8.20219 6.27797 8.63953 6.5625 9.14062 6.5625C9.64219 6.5625 10.0791 6.2775 10.3566 5.88844C10.6341 5.49937 10.7812 4.99687 10.7812 4.45312C10.7812 3.90937 10.6341 3.40641 10.3566 3.01734C10.0791 2.62828 9.64219 2.34375 9.14062 2.34375C8.63906 2.34375 8.20219 2.62875 7.92469 3.01781C7.64719 3.40688 7.5 3.90937 7.5 4.45312ZM5.85938 3.28125C6.00562 3.28125 6.16687 3.35437 6.31406 3.55969C6.45937 3.76453 6.5625 4.09078 6.5625 4.45312C6.5625 4.81547 6.45937 5.14219 6.31406 5.34656C6.16687 5.55187 6.00562 5.625 5.85938 5.625C5.71312 5.625 5.55187 5.55187 5.40469 5.34656C5.25937 5.14172 5.15625 4.81547 5.15625 4.45312C5.15625 4.09078 5.25937 3.76406 5.40469 3.55969C5.55187 3.35437 5.71312 3.28125 5.85938 3.28125ZM9.14062 3.28125C9.28687 3.28125 9.44812 3.35437 9.59531 3.55969C9.74062 3.76453 9.84375 4.09078 9.84375 4.45312C9.84375 4.81547 9.74062 5.14219 9.59531 5.34656C9.44812 5.55187 9.28687 5.625 9.14062 5.625C8.99438 5.625 8.83313 5.55187 8.68594 5.34656C8.54063 5.14172 8.4375 4.81547 8.4375 4.45312C8.4375 4.09078 8.54063 3.76406 8.68594 3.55969C8.83313 3.35437 8.99438 3.28125 9.14062 3.28125ZM3.51562 5.625C3.01406 5.625 2.57719 5.91 2.29969 6.29906C2.02219 6.68812 1.875 7.19062 1.875 7.73437C1.875 8.27812 2.02219 8.78109 2.29969 9.17016C2.57719 9.55922 3.01406 9.84375 3.51562 9.84375C4.01719 9.84375 4.45406 9.55875 4.73156 9.16969C5.00906 8.78062 5.15625 8.27812 5.15625 7.73437C5.15625 7.19062 5.00906 6.68766 4.73156 6.29859C4.45406 5.90953 4.01719 5.625 3.51562 5.625ZM11.4844 5.625C10.9828 5.625 10.5459 5.91 10.2684 6.29906C9.99094 6.68812 9.84375 7.19062 9.84375 7.73437C9.84375 8.27812 9.99094 8.78109 10.2684 9.17016C10.5459 9.55922 10.9828 9.84375 11.4844 9.84375C11.9859 9.84375 12.4228 9.55875 12.7003 9.16969C12.9778 8.78062 13.125 8.27812 13.125 7.73437C13.125 7.19062 12.9778 6.68766 12.7003 6.29859C12.4228 5.90953 11.9859 5.625 11.4844 5.625ZM3.51562 6.5625C3.66188 6.5625 3.82313 6.63562 3.97031 6.84094C4.11563 7.04578 4.21875 7.37203 4.21875 7.73437C4.21875 8.09672 4.11563 8.42344 3.97031 8.62781C3.82313 8.83312 3.66188 8.90625 3.51562 8.90625C3.36937 8.90625 3.20813 8.83312 3.06094 8.62781C2.91563 8.42344 2.8125 8.09672 2.8125 7.73437C2.8125 7.37203 2.91563 7.04531 3.06094 6.84094C3.20813 6.63562 3.36937 6.5625 3.51562 6.5625ZM11.4844 6.5625C11.6306 6.5625 11.7919 6.63562 11.9391 6.84094C12.0844 7.04578 12.1875 7.37203 12.1875 7.73437C12.1875 8.09672 12.0844 8.42344 11.9391 8.62781C11.7919 8.83312 11.6306 8.90625 11.4844 8.90625C11.3381 8.90625 11.1769 8.83312 11.0297 8.62781C10.8844 8.42297 10.7812 8.09672 10.7812 7.73437C10.7812 7.37203 10.8844 7.04531 11.0297 6.84094C11.1769 6.63562 11.3381 6.5625 11.4844 6.5625ZM7.5 7.5C6.87516 7.5 6.43922 7.90547 6.225 8.26172C6.01219 8.61797 5.88094 8.91422 5.75625 9.03797C5.68453 9.11156 5.23219 9.28172 4.76063 9.52219C4.52484 9.64266 4.28719 9.80344 4.08703 10.0495C3.88547 10.2956 3.74953 10.6355 3.74953 11.0166C3.74953 11.9166 4.49016 12.6572 5.39016 12.6572C5.79609 12.6572 6.21984 12.5259 6.63469 12.4087C7.05141 12.2887 7.5 12.1875 7.5 12.1875C7.5 12.1875 7.94859 12.2887 8.36438 12.4078C8.77969 12.525 9.20344 12.6562 9.60938 12.6562C10.5094 12.6562 11.25 11.9156 11.25 11.0156C11.25 10.6434 11.1127 10.3031 10.9125 10.0641C10.7133 9.82359 10.4733 9.675 10.2394 9.55078C9.77063 9.30234 9.30984 9.10547 9.24328 9.03797C9.13078 8.92687 9.00422 8.62078 8.78859 8.26266C8.57344 7.90312 8.12813 7.5 7.5 7.5ZM7.5 8.4375C7.80937 8.4375 7.84359 8.5125 7.98281 8.745C8.12344 8.97703 8.22844 9.37125 8.56875 9.71203C8.95547 10.0964 9.44391 10.1808 9.79969 10.3702C9.97781 10.4648 10.1138 10.5656 10.1953 10.6631C10.2764 10.7602 10.3125 10.8487 10.3125 11.0147C10.3125 11.4084 10.0031 11.7178 9.60938 11.7178C9.47344 11.7178 9.03562 11.6147 8.62781 11.4975C8.22 11.3817 7.8825 11.2491 7.5 11.2491C7.1175 11.2491 6.78 11.3817 6.37219 11.4975C5.96438 11.6147 5.52656 11.7178 5.39062 11.7178C4.99688 11.7178 4.6875 11.4084 4.6875 11.0147C4.6875 10.8258 4.72688 10.7287 4.80469 10.6331C4.8825 10.538 5.02594 10.4437 5.20031 10.3552C5.54906 10.177 6.03469 10.1067 6.43078 9.71062C6.77437 9.36516 6.8775 8.95828 7.01672 8.72859C7.15359 8.49891 7.18641 8.43562 7.49953 8.43562L7.5 8.4375Z" fill="#F97B3A"/>
</svg>
